PathFileType        4      (X/Y/Z)      /Users/FranklinZhao/OpenSimProject/Simulation/Models/Rajapogal_2015/marker_data/trc/transformed_SN001_0010_10m_01.trc         
DataRate	CameraRate	NumFrames	NumMarkers	Units	OrigDataRate	OrigDataStartFrame	OrigNumFrames
200.0	200.0	4	72	mm	200.0	1	641
Frame#	Time	LPSIS			RPSIS			LICR			RICR			LASIS			RASIS			STER			XPRO			C7			T4			T8			T10			RUA1			RUA2			RUA3			RUA4			RHLE			RHME			RTEMP			RHEAD			LHEAD			LTEMP			RACR			LACR			LUA1			LUA2			LUA3			LUA4			LHLE			LHME			LFA1			LFA2			LFA3			LRSP			LUSP			RFA1			RFA2			RFA3			RRSP			RUSP			LTH1			LTH2			LTH3			LTH4			LFLE			LFME			LSK1			LSK2			LSK3			LSK4			LTAM			LFAL			LFCC			LFMT1			LFMT2			LFMT5			RTH1			RTH2			RTH3			RTH4			RFLE			RFME			RSK1			RSK2			RSK3			RSK4			RFAL			RTAM			RFCC			RFMT1			RFMT2			RFMT5			
		X1	Y1	Z1	X2	Y2	Z2	X3	Y3	Z3	X4	Y4	Z4	X5	Y5	Z5	X6	Y6	Z6	X7	Y7	Z7	X8	Y8	Z8	X9	Y9	Z9	X10	Y10	Z10	X11	Y11	Z11	X12	Y12	Z12	X13	Y13	Z13	X14	Y14	Z14	X15	Y15	Z15	X16	Y16	Z16	X17	Y17	Z17	X18	Y18	Z18	X19	Y19	Z19	X20	Y20	Z20	X21	Y21	Z21	X22	Y22	Z22	X23	Y23	Z23	X24	Y24	Z24	X25	Y25	Z25	X26	Y26	Z26	X27	Y27	Z27	X28	Y28	Z28	X29	Y29	Z29	X30	Y30	Z30	X31	Y31	Z31	X32	Y32	Z32	X33	Y33	Z33	X34	Y34	Z34	X35	Y35	Z35	X36	Y36	Z36	X37	Y37	Z37	X38	Y38	Z38	X39	Y39	Z39	X40	Y40	Z40	X41	Y41	Z41	X42	Y42	Z42	X43	Y43	Z43	X44	Y44	Z44	X45	Y45	Z45	X46	Y46	Z46	X47	Y47	Z47	X48	Y48	Z48	X49	Y49	Z49	X50	Y50	Z50	X51	Y51	Z51	X52	Y52	Z52	X53	Y53	Z53	X54	Y54	Z54	X55	Y55	Z55	X56	Y56	Z56	X57	Y57	Z57	X58	Y58	Z58	X59	Y59	Z59	X60	Y60	Z60	X61	Y61	Z61	X62	Y62	Z62	X63	Y63	Z63	X64	Y64	Z64	X65	Y65	Z65	X66	Y66	Z66	X67	Y67	Z67	X68	Y68	Z68	X69	Y69	Z69	X70	Y70	Z70	X71	Y71	Z71	X72	Y72	Z72	
1	0.0	-2264.526611328125	952.298095703125	-266.4352111816408	-2260.66162109375	948.5806274414062	-189.15776062011736	-2253.105224609375	1013.0556030273439	-357.793151855469	-2230.322998046875	1026.501831054688	-100.32775878906268	-2081.3017578125	934.0559082031249	-375.45855712890636	-2059.533447265625	931.1763305664062	-115.93445587158217	-2091.301513671875	1396.273071289062	-234.60537719726585	-2035.965942382812	1187.617919921875	-245.62142944335963	-2222.75390625	1502.081787109375	-235.6187286376956	-2279.15283203125	1393.365356445312	-252.97802734375026	-2285.8388671875	1258.650146484375	-246.93655395507832	-2284.849853515625	1214.3388671875	-248.83015441894554	-2281.210693359375	1286.461547851562	-15.219997406006096	-2209.744873046875	1261.372314453125	-8.632545471191637	-2223.31005859375	1188.994873046875	-0.5947296619417467	-2297.265869140625	1202.499389648438	-6.219605445862038	-2292.210693359375	1109.799194335938	-5.560385704040732	-2300.71142578125	1108.078979492188	-84.33282470703145	-2064.742919921875	1651.738159179688	-141.2257080078128	-2020.763549804688	1663.32373046875	-174.6428680419925	-2019.078857421875	1662.736938476562	-256.5943908691409	-2065.660888671875	1647.728271484375	-297.2929992675784	-2199.053466796875	1441.066040039062	-53.91067504882838	-2161.73828125	1466.878784179688	-423.2778625488284	-2095.453857421875	1330.347900390625	-483.90887451171903	-2158.78857421875	1299.278076171875	-509.2736511230471	-2127.087890625	1223.621948242188	-536.4380493164065	-2064.062255859375	1252.968139648438	-510.05520629882835	-2073.7666015625	1163.2724609375	-542.0203247070315	-2110.77490234375	1124.843872070312	-488.1714477539064	-1872.8701171875	1050.50048828125	-495.12213134765636	-1873.762084960938	1049.564331054688	-541.5156860351565	-1864.823608398438	1019.9656982421878	-508.93585205078136	-1864.243530273438	977.9724731445311	-474.9861145019533	-1873.024291992188	964.5105590820311	-544.0034179687502	-2263.74609375	919.0711669921875	52.43881607055647	-2234.638916015625	907.8584594726562	17.036226272582844	-2257.53125	883.173095703125	25.603059768676598	-2265.109375	829.0987548828125	-2.6600813865663144	-2310.96044921875	847.6365966796875	41.72918319702132	-2230.995849609375	683.2808837890624	-407.3958129882813	-2276.240478515625	703.6309814453124	-398.016571044922	-2323.055908203125	609.0563354492186	-376.300750732422	-2263.5771484375	587.5981445312499	-389.5120849609376	-2337.22412109375	515.1226806640624	-364.9466247558595	-2332.739501953125	502.02896118164057	-246.3930053710939	-2426.89599609375	355.91970825195307	-378.89874267578125	-2481.455078125	383.9855651855468	-367.32577514648443	-2518.99169921875	306.35342407226557	-348.8274230957032	-2461.5283203125	281.87503051757807	-364.36254882812506	-2524.648193359375	126.32444763183585	-243.60955810546884	-2573.580810546875	128.54690551757804	-307.6728515625	-2610.034912109375	106.60230255126946	-252.91421508789062	-2417.241455078125	29.47866058349604	-272.372802734375	-2422.472900390625	29.713329315185494	-308.3817443847656	-2473.27001953125	26.213640213012635	-349.6193237304688	-2058.134033203125	675.5659790039062	-69.67119598388685	-1999.988891601562	685.6953735351562	-63.8792648315431	-1956.610717773438	611.0667724609375	-73.71430969238293	-2015.313720703125	584.8015747070312	-83.18077087402355	-1941.90869140625	501.6965026855469	-102.98957061767588	-1912.7705078125	489.62237548828114	-227.12638854980477	-1903.204711914062	327.2116088867188	-89.81029510498053	-1863.63525390625	369.314453125	-77.64995574951179	-1807.150024414062	277.2094421386719	-90.07776641845709	-1866.220458984375	253.74668884277338	-96.87776947021489	-1754.162353515625	77.38619232177732	-128.76718139648443	-1721.767944335938	119.18325042724605	-197.93289184570312	-1764.379272460938	39.47856903076168	-184.7541351318359	-1588.627197265625	118.31542968749997	-148.82382202148443	-1589.962158203125	117.58989715576168	-116.61926269531253	-1618.86328125	87.65819549560545	-81.06001281738283	
2	0.005	-2254.64501953125	952.1019897460938	-265.6349182128908	-2250.515869140625	948.2444458007812	-188.34370422363298	-2243.45849609375	1012.7437744140619	-356.96224975585955	-2220.04833984375	1026.189331054688	-99.28958892822284	-2071.613525390625	933.9777832031249	-375.245544433594	-2049.52001953125	931.306884765625	-115.75619506835957	-2081.99658203125	1396.189086914062	-234.12579345703145	-2026.382568359375	1187.738891601562	-245.45816040039082	-2213.7587890625	1501.984497070312	-234.7972259521487	-2269.869140625	1392.97802734375	-252.19953918457057	-2276.3681640625	1258.203247070312	-246.04098510742213	-2275.364013671875	1213.822875976562	-247.94987487792991	-2271.6396484375	1286.105712890625	-14.503666877746817	-2200.159423828125	1260.697875976562	-8.353675842285387	-2213.90380859375	1188.3955078125	-0.3167195916178025	-2287.720703125	1201.98486328125	-5.686967372894508	-2282.839599609375	1109.30224609375	-5.366097927093709	-2291.993896484375	1108.161376953125	-83.96117401123067	-2055.770263671875	1651.404541015625	-140.7237701416019	-2011.770629882812	1663.061401367188	-174.0632934570315	-2010.198486328125	1662.653442382812	-256.2271728515628	-2056.84228515625	1647.621337890625	-296.70504760742216	-2189.336181640625	1440.633178710938	-53.13346862792995	-2152.900390625	1466.710205078125	-422.5831604003909	-2086.910888671875	1330.102172851562	-483.4406738281252	-2150.386474609375	1299.114868164062	-508.53579711914085	-2118.8896484375	1223.466674804688	-535.6784667968752	-2055.62060546875	1252.58935546875	-509.4050903320314	-2065.340087890625	1163.161987304688	-541.3689575195315	-2102.175537109375	1124.653930664062	-487.1711425781252	-1864.451171875	1050.382202148438	-495.11483764648455	-1865.543334960938	1049.49462890625	-541.461608886719	-1856.426635742188	1019.9701538085939	-508.96759033203136	-1855.759155273438	977.9814453124999	-474.93261718750017	-1864.716674804688	964.4030761718749	-543.877624511719	-2255.220703125	918.5728149414062	52.17234802246077	-2226.604736328125	906.8755493164062	16.661636352538892	-2249.507080078125	882.8157958984375	25.356575012206868	-2257.504638671875	828.5611572265625	-2.9951064586640923	-2303.2197265625	847.476318359375	41.54755783081039	-2222.54345703125	683.6144409179686	-407.044403076172	-2267.725830078125	704.3454589843749	-397.44424438476574	-2314.728515625	609.6533203124999	-375.8518676757813	-2255.38623046875	588.0393676757811	-389.1909790039063	-2329.414794921875	515.7305297851561	-364.915740966797	-2324.148681640625	501.91458129882807	-246.31451416015628	-2421.218994140625	357.74243164062494	-378.91821289062506	-2475.2958984375	386.32974243164057	-366.96994018554693	-2513.81005859375	309.26770019531244	-348.61767578125006	-2456.84326171875	284.2198181152343	-364.75387573242193	-2521.72412109375	129.05130004882804	-244.51887512207034	-2570.85986328125	132.33111572265614	-308.2505187988281	-2607.40673828125	111.38962554931636	-253.41877746582034	-2416.9736328125	29.456989288330032	-272.4115295410156	-2422.262939453125	29.728199005126893	-308.3327941894531	-2472.74609375	26.826183319091736	-349.4618225097656	-2049.3125	676.3967895507812	-68.208953857422	-1990.121337890625	685.531494140625	-63.54864501953138	-1947.390991210938	610.664306640625	-73.36260223388683	-2006.1474609375	584.8118286132812	-82.75570678710949	-1933.19091796875	501.3814086914062	-102.84594726562509	-1904.474487304688	489.01196289062494	-227.01664733886727	-1894.778076171875	326.4135131835938	-89.97270965576178	-1855.127563476562	368.6178283691406	-77.49476623535163	-1798.78759765625	276.4024658203125	-90.01660919189459	-1857.652587890625	252.70971679687497	-97.37995147705082	-1745.809448242188	76.42694854736325	-129.5927734375	-1713.386596679688	118.62773132324216	-198.40994262695312	-1755.555908203125	38.799594879150355	-185.7977600097656	-1580.348388671875	118.20960998535158	-149.33039855957034	-1581.563110351562	116.89202117919918	-116.87024688720703	-1610.09716796875	85.96151733398436	-82.30515289306642	
3	0.01	-2244.55615234375	951.9420166015625	-264.9061584472658	-2240.536865234375	948.3320922851562	-187.54270935058608	-2233.7412109375	1012.3793334960939	-356.37243652343767	-2209.819091796875	1026.249145507812	-98.51321411132831	-2061.736328125	933.7994995117186	-374.849548339844	-2039.41015625	931.5901489257812	-115.52920532226577	-2072.6845703125	1396.164916992188	-233.54452514648466	-2016.684326171875	1187.66015625	-245.14561462402364	-2204.42529296875	1501.5888671875	-233.99942016601588	-2260.500732421875	1392.744262695312	-251.39370727539085	-2266.696533203125	1257.940063476562	-245.50698852539082	-2265.671630859375	1213.599365234375	-247.31880187988304	-2262.02392578125	1285.8388671875	-13.854591369629146	-2190.529052734375	1260.403930664062	-7.879926204681627	-2204.243408203125	1187.937744140625	-0.044068053364971944	-2278.145263671875	1201.684326171875	-5.218866348266823	-2273.2392578125	1109.155639648438	-5.1219367980959065	-2282.24658203125	1107.80126953125	-83.84011077880879	-2046.711547851562	1651.457275390625	-140.1988525390628	-2002.797241210938	1663.052978515625	-173.64122009277372	-2001.263671875	1662.43408203125	-255.77023315429722	-2047.851318359375	1647.630493164062	-296.1600646972659	-2179.781005859375	1440.27587890625	-52.50100708007838	-2144.12841796875	1466.808471679688	-421.9224243164065	-2078.37451171875	1330.057983398438	-482.8661804199221	-2142.122802734375	1299.06396484375	-507.7727661132814	-2110.705810546875	1223.285400390625	-534.9089965820315	-2047.427490234375	1252.4375	-508.9556884765627	-2057.511474609375	1163.129516601562	-540.8822021484377	-2093.67431640625	1124.527954101562	-485.91787719726585	-1856.2734375	1050.25927734375	-495.2342834472658	-1857.460205078125	1049.313598632812	-541.3859863281252	-1848.220703125	1019.7684326171878	-508.93902587890636	-1847.449462890625	977.7980346679686	-474.96569824218767	-1856.7080078125	964.3313598632811	-543.8916625976565	-2246.614013671875	918.0692138671875	51.88063049316389	-2217.821044921875	906.41748046875	16.741067886352372	-2241.2958984375	882.0518798828125	25.111099243163896	-2249.90283203125	828.05126953125	-3.2300179004670713	-2295.04443359375	847.240966796875	41.67354583740218	-2213.80517578125	684.0532226562499	-406.7055053710939	-2258.90478515625	704.8446655273436	-396.8621215820313	-2306.13623046875	610.2924804687499	-375.3501892089845	-2246.953125	588.5399780273436	-389.4413452148439	-2321.26025390625	516.3361206054686	-364.89358520507824	-2315.352294921875	502.0176696777343	-246.46597290039068	-2415.235107421875	359.6519470214843	-378.9662170410157	-2468.86572265625	389.00222778320307	-366.80465698242193	-2508.43115234375	312.2620544433593	-348.52413940429693	-2451.90087890625	286.62902832031244	-365.04644775390625	-2518.48486328125	131.75697326660153	-245.27449035644534	-2567.859619140625	136.07652282714835	-308.8257446289062	-2604.279541015625	116.27632904052726	-253.99432373046884	-2416.68408203125	29.39026832580561	-272.65380859375	-2422.05517578125	29.696586608886662	-308.2831726074219	-2472.167724609375	27.449909210205018	-349.4326171875	-2039.250854492188	676.8758544921875	-67.57322692871107	-1980.00634765625	685.792724609375	-63.178241729736456	-1937.450073242188	610.7158203125	-73.17017364501964	-1996.392456054688	585.0963134765625	-82.23509979248058	-1923.869262695312	501.4152221679688	-102.75151824951179	-1895.721435546875	489.08718872070307	-226.73370361328128	-1886.393920898438	325.4955749511719	-90.14182281494146	-1846.719848632812	367.5034790039062	-77.1692199707032	-1790.69189453125	275.1219787597656	-90.2887802124024	-1849.512817382812	251.98550415039057	-97.95259094238286	-1738.438110351562	75.24769592285153	-130.468994140625	-1705.775390625	117.71358489990226	-198.93063354492193	-1747.987060546875	37.623149871826136	-187.0019989013672	-1572.929321289062	117.39633941650388	-150.07312011718753	-1574.009765625	115.75000762939447	-117.50983428955081	-1602.547485351562	84.24983978271483	-83.16174316406251	
4	0.015	-2234.2490234375	951.8821411132812	-264.00366210937517	-2230.348388671875	948.4032592773438	-186.79202270507827	-2223.787109375	1012.2551879882809	-355.688659667969	-2199.4365234375	1026.454956054688	-97.94583892822284	-2051.858642578125	933.5247802734374	-374.5354309082033	-2029.084594726562	932.03955078125	-115.45037841796898	-2063.23876953125	1396.189208984375	-233.03738403320335	-2006.679809570312	1187.90087890625	-244.72752380371114	-2195.213134765625	1501.386962890625	-233.2216491699222	-2251.08935546875	1392.470092773438	-250.45028686523466	-2257.01708984375	1257.699829101562	-244.70729064941432	-2255.75	1213.332763671875	-246.65725708007832	-2252.216064453125	1285.596069335938	-13.176246643066646	-2180.8271484375	1259.967163085938	-7.426838874817127	-2194.458251953125	1187.649658203125	0.25916987657525187	-2268.4404296875	1201.383911132812	-4.7163209915163335	-2263.541259765625	1108.818237304688	-5.004353523254599	-2273.081787109375	1108.086181640625	-83.51532745361348	-2037.592895507812	1651.506591796875	-139.7368316650394	-1993.75439453125	1663.1650390625	-173.0356597900394	-1992.258422851562	1662.7578125	-255.19306945800813	-2039.026489257812	1647.480346679688	-295.6817932128909	-2170.330322265625	1440.131958007812	-51.768226623535426	-2135.30029296875	1466.868896484375	-421.1769409179691	-2069.874755859375	1330.063720703125	-482.41629028320335	-2133.771484375	1299.0986328125	-506.90374755859403	-2102.555419921875	1223.278198242188	-534.1482543945315	-2039.09765625	1252.278686523438	-508.4733581542971	-2049.276611328125	1162.559448242188	-539.940856933594	-2085.41162109375	1124.467651367188	-484.80557250976585	-1848.087890625	1050.152709960938	-495.13513183593767	-1849.589477539062	1049.00390625	-541.419372558594	-1840.1455078125	1019.6720581054689	-508.96005249023455	-1839.341674804688	977.5133056640624	-475.18392944335955	-1848.804077148438	964.1582031249999	-543.8027954101565	-2237.683349609375	917.8438110351562	51.875072479247876	-2209.673095703125	905.8041381835938	15.607849121093583	-2232.84765625	881.6452026367188	24.603212356567216	-2242.033203125	827.71728515625	-3.6878409385682667	-2286.8330078125	847.1832885742188	41.63747024536117	-2204.885986328125	684.1960449218749	-406.29299926757824	-2249.878662109375	705.2710571289061	-396.1353454589845	-2297.401611328125	610.8388061523436	-374.81826782226574	-2238.49169921875	588.7409057617186	-388.882049560547	-2312.73388671875	516.8397827148436	-364.81668090820324	-2306.242919921875	501.93646240234375	-246.70416259765628	-2409.0068359375	361.41912841796875	-379.3762512207032	-2462.09912109375	391.4849548339843	-366.64233398437506	-2502.6484375	315.32415771484375	-348.49780273437506	-2446.62451171875	288.85827636718744	-365.31243896484386	-2515.019287109375	134.75717163085935	-246.14399719238284	-2564.638427734375	140.58238220214835	-310.0440673828125	-2601.0009765625	120.83596801757805	-254.17971801757812	-2416.40771484375	29.41133689880366	-272.8776550292969	-2421.83447265625	29.736339569091744	-308.2544860839844	-2471.488037109375	28.324897766113217	-349.2404479980469	-2027.71826171875	676.8231201171875	-68.18973541259778	-1969.397094726562	686.424560546875	-62.87323760986341	-1927.019897460938	611.265625	-72.89922332763683	-1986.186157226562	585.5430908203125	-81.91476440429699	-1914.201904296875	501.753173828125	-102.54017639160169	-1886.533935546875	489.30902099609375	-226.3653259277345	-1878.232666015625	324.7877502441406	-90.49158477783209	-1838.291748046875	366.493408203125	-77.20919799804695	-1782.95361328125	273.9671630859375	-90.6337509155274	-1841.972778320312	250.81623840332028	-98.62085723876957	-1731.853271484375	73.6221008300781	-131.3218688964844	-1698.763916015625	116.22271728515615	-199.59416198730472	-1741.59228515625	36.40480804443355	-187.7335205078125	-1566.221313476562	115.57004547119138	-150.97215270996094	-1567.210571289062	113.75762176513668	-118.42344665527341	-1595.839965820312	81.49748229980467	-84.12337493896486	
